<svg xmlns="http://www.w3.org/2000/svg" xmlns:xlink="http://www.w3.org/1999/xlink" xmlns:s="https://github.com/nturley/netlistsvg" width="137" height="1337">
  <style>svg {
    stroke:#000;
    fill:none;
  }
  text {
    fill:#000;
    stroke:none;
    font-size:10px;
    font-weight: bold;
    font-family: "Courier New", monospace;
  }
  .nodelabel {
    text-anchor: middle;
  }
  .inputPortLabel {
    text-anchor: end;
  }
  .splitjoinBody {
    fill:#000;
  }</style>
  <g s:type="generic" transform="translate(95,286)" s:width="30" s:height="40" id="cell_J1">
    <text x="15" y="-4" class="nodelabel cell_J1" s:attribute="ref">HRO TYPE-C-31-M-12</text>
    <rect width="30" height="340" s:generic="body" class="cell_J1"/>
    <g transform="translate(0,10)" s:x="0" s:y="10" s:pid="in0" id="port_J1~GND_A1">
      <text x="-3" y="-4" class="inputPortLabel cell_J1">GND_A1</text>
    </g>
    <g transform="translate(0,30)" s:x="0" s:y="10" s:pid="in0" id="port_J1~VBUS_A4">
      <text x="-3" y="-4" class="inputPortLabel cell_J1">VBUS_A4</text>
    </g>
    <g transform="translate(0,50)" s:x="0" s:y="10" s:pid="in0" id="port_J1~CC1">
      <text x="-3" y="-4" class="inputPortLabel cell_J1">CC1</text>
    </g>
    <g transform="translate(0,70)" s:x="0" s:y="10" s:pid="in0" id="port_J1~DP_A6">
      <text x="-3" y="-4" class="inputPortLabel cell_J1">DP_A6</text>
    </g>
    <g transform="translate(0,90)" s:x="0" s:y="10" s:pid="in0" id="port_J1~DN_A7">
      <text x="-3" y="-4" class="inputPortLabel cell_J1">DN_A7</text>
    </g>
    <g transform="translate(0,110)" s:x="0" s:y="10" s:pid="in0" id="port_J1~SBU1">
      <text x="-3" y="-4" class="inputPortLabel cell_J1">SBU1</text>
    </g>
    <g transform="translate(0,130)" s:x="0" s:y="10" s:pid="in0" id="port_J1~VBUS_A9">
      <text x="-3" y="-4" class="inputPortLabel cell_J1">VBUS_A9</text>
    </g>
    <g transform="translate(0,150)" s:x="0" s:y="10" s:pid="in0" id="port_J1~GND_A12">
      <text x="-3" y="-4" class="inputPortLabel cell_J1">GND_A12</text>
    </g>
    <g transform="translate(0,170)" s:x="0" s:y="10" s:pid="in0" id="port_J1~GND_B1">
      <text x="-3" y="-4" class="inputPortLabel cell_J1">GND_B1</text>
    </g>
    <g transform="translate(0,190)" s:x="0" s:y="10" s:pid="in0" id="port_J1~VBUS_B4">
      <text x="-3" y="-4" class="inputPortLabel cell_J1">VBUS_B4</text>
    </g>
    <g transform="translate(0,210)" s:x="0" s:y="10" s:pid="in0" id="port_J1~CC2">
      <text x="-3" y="-4" class="inputPortLabel cell_J1">CC2</text>
    </g>
    <g transform="translate(0,230)" s:x="0" s:y="10" s:pid="in0" id="port_J1~DP_B6">
      <text x="-3" y="-4" class="inputPortLabel cell_J1">DP_B6</text>
    </g>
    <g transform="translate(0,250)" s:x="0" s:y="10" s:pid="in0" id="port_J1~DN_B7">
      <text x="-3" y="-4" class="inputPortLabel cell_J1">DN_B7</text>
    </g>
    <g transform="translate(0,270)" s:x="0" s:y="10" s:pid="in0" id="port_J1~SBU2">
      <text x="-3" y="-4" class="inputPortLabel cell_J1">SBU2</text>
    </g>
    <g transform="translate(0,290)" s:x="0" s:y="10" s:pid="in0" id="port_J1~VBUS_B9">
      <text x="-3" y="-4" class="inputPortLabel cell_J1">VBUS_B9</text>
    </g>
    <g transform="translate(0,310)" s:x="0" s:y="10" s:pid="in0" id="port_J1~GND_B12">
      <text x="-3" y="-4" class="inputPortLabel cell_J1">GND_B12</text>
    </g>
    <g transform="translate(0,330)" s:x="0" s:y="10" s:pid="in0" id="port_J1~SHIELD">
      <text x="-3" y="-4" class="inputPortLabel cell_J1">SHIELD</text>
    </g>
  </g>
  <g s:type="generic" transform="translate(95,22)" s:width="30" s:height="40" id="cell_R1">
    <text x="15" y="-4" class="nodelabel cell_R1" s:attribute="ref">5.1k</text>
    <rect width="30" height="40" s:generic="body" class="cell_R1"/>
    <g transform="translate(0,10)" s:x="0" s:y="10" s:pid="in0" id="port_R1~1">
      <text x="-3" y="-4" class="inputPortLabel cell_R1">1</text>
    </g>
    <g transform="translate(0,30)" s:x="0" s:y="10" s:pid="in0" id="port_R1~2">
      <text x="-3" y="-4" class="inputPortLabel cell_R1">2</text>
    </g>
  </g>
  <g s:type="generic" transform="translate(95,674)" s:width="30" s:height="40" id="cell_R2">
    <text x="15" y="-4" class="nodelabel cell_R2" s:attribute="ref">5.1k</text>
    <rect width="30" height="40" s:generic="body" class="cell_R2"/>
    <g transform="translate(0,10)" s:x="0" s:y="10" s:pid="in0" id="port_R2~1">
      <text x="-3" y="-4" class="inputPortLabel cell_R2">1</text>
    </g>
    <g transform="translate(0,30)" s:x="0" s:y="10" s:pid="in0" id="port_R2~2">
      <text x="-3" y="-4" class="inputPortLabel cell_R2">2</text>
    </g>
  </g>
  <g s:type="generic" transform="translate(95,762)" s:width="30" s:height="40" id="cell_U1">
    <text x="15" y="-4" class="nodelabel cell_U1" s:attribute="ref">AMS1117-5.0</text>
    <rect width="30" height="80" s:generic="body" class="cell_U1"/>
    <g transform="translate(0,10)" s:x="0" s:y="10" s:pid="in0" id="port_U1~GND">
      <text x="-3" y="-4" class="inputPortLabel cell_U1">GND</text>
    </g>
    <g transform="translate(0,30)" s:x="0" s:y="10" s:pid="in0" id="port_U1~VOUT">
      <text x="-3" y="-4" class="inputPortLabel cell_U1">VOUT</text>
    </g>
    <g transform="translate(0,50)" s:x="0" s:y="10" s:pid="in0" id="port_U1~VIN">
      <text x="-3" y="-4" class="inputPortLabel cell_U1">VIN</text>
    </g>
    <g transform="translate(0,70)" s:x="0" s:y="10" s:pid="in0" id="port_U1~TAB">
      <text x="-3" y="-4" class="inputPortLabel cell_U1">TAB</text>
    </g>
  </g>
  <g s:type="generic" transform="translate(95,198)" s:width="30" s:height="40" id="cell_C1">
    <text x="15" y="-4" class="nodelabel cell_C1" s:attribute="ref">10uF</text>
    <rect width="30" height="40" s:generic="body" class="cell_C1"/>
    <g transform="translate(0,10)" s:x="0" s:y="10" s:pid="in0" id="port_C1~1">
      <text x="-3" y="-4" class="inputPortLabel cell_C1">1</text>
    </g>
    <g transform="translate(0,30)" s:x="0" s:y="10" s:pid="in0" id="port_C1~2">
      <text x="-3" y="-4" class="inputPortLabel cell_C1">2</text>
    </g>
  </g>
  <g s:type="generic" transform="translate(95,110)" s:width="30" s:height="40" id="cell_C2">
    <text x="15" y="-4" class="nodelabel cell_C2" s:attribute="ref">10uF</text>
    <rect width="30" height="40" s:generic="body" class="cell_C2"/>
    <g transform="translate(0,10)" s:x="0" s:y="10" s:pid="in0" id="port_C2~1">
      <text x="-3" y="-4" class="inputPortLabel cell_C2">1</text>
    </g>
    <g transform="translate(0,30)" s:x="0" s:y="10" s:pid="in0" id="port_C2~2">
      <text x="-3" y="-4" class="inputPortLabel cell_C2">2</text>
    </g>
  </g>
  <g s:type="generic" transform="translate(95,890)" s:width="30" s:height="40" id="cell_C3">
    <text x="15" y="-4" class="nodelabel cell_C3" s:attribute="ref">10uF</text>
    <rect width="30" height="40" s:generic="body" class="cell_C3"/>
    <g transform="translate(0,10)" s:x="0" s:y="10" s:pid="in0" id="port_C3~1">
      <text x="-3" y="-4" class="inputPortLabel cell_C3">1</text>
    </g>
    <g transform="translate(0,30)" s:x="0" s:y="10" s:pid="in0" id="port_C3~2">
      <text x="-3" y="-4" class="inputPortLabel cell_C3">2</text>
    </g>
  </g>
  <g s:type="generic" transform="translate(95,1066)" s:width="30" s:height="40" id="cell_C4">
    <text x="15" y="-4" class="nodelabel cell_C4" s:attribute="ref">100nF</text>
    <rect width="30" height="40" s:generic="body" class="cell_C4"/>
    <g transform="translate(0,10)" s:x="0" s:y="10" s:pid="in0" id="port_C4~1">
      <text x="-3" y="-4" class="inputPortLabel cell_C4">1</text>
    </g>
    <g transform="translate(0,30)" s:x="0" s:y="10" s:pid="in0" id="port_C4~2">
      <text x="-3" y="-4" class="inputPortLabel cell_C4">2</text>
    </g>
  </g>
  <g s:type="generic" transform="translate(95,1154)" s:width="30" s:height="40" id="cell_D1">
    <text x="15" y="-4" class="nodelabel cell_D1" s:attribute="ref">RED</text>
    <rect width="30" height="80" s:generic="body" class="cell_D1"/>
    <g transform="translate(0,10)" s:x="0" s:y="10" s:pid="in0" id="port_D1~1">
      <text x="-3" y="-4" class="inputPortLabel cell_D1">1</text>
    </g>
    <g transform="translate(0,30)" s:x="0" s:y="10" s:pid="in0" id="port_D1~2">
      <text x="-3" y="-4" class="inputPortLabel cell_D1">2</text>
    </g>
    <g transform="translate(0,50)" s:x="0" s:y="10" s:pid="in0" id="port_D1~K">
      <text x="-3" y="-4" class="inputPortLabel cell_D1">K</text>
    </g>
    <g transform="translate(0,70)" s:x="0" s:y="10" s:pid="in0" id="port_D1~A">
      <text x="-3" y="-4" class="inputPortLabel cell_D1">A</text>
    </g>
  </g>
  <g s:type="generic" transform="translate(95,1282)" s:width="30" s:height="40" id="cell_R3">
    <text x="15" y="-4" class="nodelabel cell_R3" s:attribute="ref">2.2k</text>
    <rect width="30" height="40" s:generic="body" class="cell_R3"/>
    <g transform="translate(0,10)" s:x="0" s:y="10" s:pid="in0" id="port_R3~1">
      <text x="-3" y="-4" class="inputPortLabel cell_R3">1</text>
    </g>
    <g transform="translate(0,30)" s:x="0" s:y="10" s:pid="in0" id="port_R3~2">
      <text x="-3" y="-4" class="inputPortLabel cell_R3">2</text>
    </g>
  </g>
  <g s:type="generic" transform="translate(95,978)" s:width="30" s:height="40" id="cell_J2">
    <text x="15" y="-4" class="nodelabel cell_J2" s:attribute="ref">5V_OUT</text>
    <rect width="30" height="40" s:generic="body" class="cell_J2"/>
    <g transform="translate(0,10)" s:x="0" s:y="10" s:pid="in0" id="port_J2~1">
      <text x="-3" y="-4" class="inputPortLabel cell_J2">1</text>
    </g>
    <g transform="translate(0,30)" s:x="0" s:y="10" s:pid="in0" id="port_J2~2">
      <text x="-3" y="-4" class="inputPortLabel cell_J2">2</text>
    </g>
  </g>
  <line x1="42" x2="42" y1="228.5" y2="296.5" class="net_2"/>
  <circle cx="42" cy="228.5" r="2" style="fill:#000" class="net_2"/>
  <circle cx="42" cy="296.5" r="2" style="fill:#000" class="net_2"/>
  <line x1="42" x2="95" y1="296.5" y2="296.5" class="net_2"/>
  <line x1="42" x2="42" y1="228.5" y2="356.5" class="net_2"/>
  <circle cx="42" cy="356.5" r="2" style="fill:#000" class="net_2"/>
  <line x1="42" x2="95" y1="356.5" y2="356.5" class="net_2"/>
  <line x1="42" x2="42" y1="228.5" y2="376.5" class="net_2"/>
  <circle cx="42" cy="376.5" r="2" style="fill:#000" class="net_2"/>
  <line x1="42" x2="95" y1="376.5" y2="376.5" class="net_2"/>
  <line x1="42" x2="42" y1="228.5" y2="396.5" class="net_2"/>
  <circle cx="42" cy="396.5" r="2" style="fill:#000" class="net_2"/>
  <line x1="42" x2="95" y1="396.5" y2="396.5" class="net_2"/>
  <line x1="42" x2="42" y1="228.5" y2="436.5" class="net_2"/>
  <circle cx="42" cy="436.5" r="2" style="fill:#000" class="net_2"/>
  <line x1="42" x2="95" y1="436.5" y2="436.5" class="net_2"/>
  <line x1="42" x2="42" y1="228.5" y2="456.5" class="net_2"/>
  <circle cx="42" cy="456.5" r="2" style="fill:#000" class="net_2"/>
  <line x1="42" x2="95" y1="456.5" y2="456.5" class="net_2"/>
  <line x1="42" x2="42" y1="228.5" y2="516.5" class="net_2"/>
  <circle cx="42" cy="516.5" r="2" style="fill:#000" class="net_2"/>
  <line x1="42" x2="95" y1="516.5" y2="516.5" class="net_2"/>
  <line x1="42" x2="42" y1="228.5" y2="536.5" class="net_2"/>
  <circle cx="42" cy="536.5" r="2" style="fill:#000" class="net_2"/>
  <line x1="42" x2="95" y1="536.5" y2="536.5" class="net_2"/>
  <line x1="42" x2="42" y1="228.5" y2="556.5" class="net_2"/>
  <circle cx="42" cy="556.5" r="2" style="fill:#000" class="net_2"/>
  <line x1="42" x2="95" y1="556.5" y2="556.5" class="net_2"/>
  <line x1="42" x2="42" y1="228.5" y2="596.5" class="net_2"/>
  <circle cx="42" cy="596.5" r="2" style="fill:#000" class="net_2"/>
  <line x1="42" x2="95" y1="596.5" y2="596.5" class="net_2"/>
  <line x1="42" x2="42" y1="228.5" y2="616.5" class="net_2"/>
  <circle cx="42" cy="616.5" r="2" style="fill:#000" class="net_2"/>
  <line x1="42" x2="95" y1="616.5" y2="616.5" class="net_2"/>
  <line x1="42" x2="42" y1="228.5" y2="52.5" class="net_2"/>
  <line x1="42" x2="95" y1="52.5" y2="52.5" class="net_2"/>
  <line x1="42" x2="42" y1="228.5" y2="704.5" class="net_2"/>
  <circle cx="42" cy="704.5" r="2" style="fill:#000" class="net_2"/>
  <line x1="42" x2="95" y1="704.5" y2="704.5" class="net_2"/>
  <line x1="42" x2="42" y1="228.5" y2="772.5" class="net_2"/>
  <circle cx="42" cy="772.5" r="2" style="fill:#000" class="net_2"/>
  <line x1="42" x2="95" y1="772.5" y2="772.5" class="net_2"/>
  <line x1="42" x2="95" y1="228.5" y2="228.5" class="net_2"/>
  <line x1="42" x2="42" y1="228.5" y2="140.5" class="net_2"/>
  <circle cx="42" cy="140.5" r="2" style="fill:#000" class="net_2"/>
  <line x1="42" x2="95" y1="140.5" y2="140.5" class="net_2"/>
  <line x1="42" x2="42" y1="228.5" y2="920.5" class="net_2"/>
  <circle cx="42" cy="920.5" r="2" style="fill:#000" class="net_2"/>
  <line x1="42" x2="95" y1="920.5" y2="920.5" class="net_2"/>
  <line x1="42" x2="42" y1="228.5" y2="1096.5" class="net_2"/>
  <circle cx="42" cy="1096.5" r="2" style="fill:#000" class="net_2"/>
  <line x1="42" x2="95" y1="1096.5" y2="1096.5" class="net_2"/>
  <line x1="42" x2="42" y1="228.5" y2="1164.5" class="net_2"/>
  <circle cx="42" cy="1164.5" r="2" style="fill:#000" class="net_2"/>
  <line x1="42" x2="95" y1="1164.5" y2="1164.5" class="net_2"/>
  <line x1="42" x2="42" y1="228.5" y2="1204.5" class="net_2"/>
  <line x1="42" x2="95" y1="1204.5" y2="1204.5" class="net_2"/>
  <line x1="42" x2="42" y1="228.5" y2="1008.5" class="net_2"/>
  <circle cx="42" cy="1008.5" r="2" style="fill:#000" class="net_2"/>
  <line x1="42" x2="95" y1="1008.5" y2="1008.5" class="net_2"/>
  <line x1="32" x2="32" y1="120.5" y2="316.5" class="net_3"/>
  <circle cx="32" cy="316.5" r="2" style="fill:#000" class="net_3"/>
  <line x1="32" x2="95" y1="316.5" y2="316.5" class="net_3"/>
  <line x1="32" x2="32" y1="120.5" y2="416.5" class="net_3"/>
  <circle cx="32" cy="416.5" r="2" style="fill:#000" class="net_3"/>
  <line x1="32" x2="95" y1="416.5" y2="416.5" class="net_3"/>
  <line x1="32" x2="32" y1="120.5" y2="476.5" class="net_3"/>
  <circle cx="32" cy="476.5" r="2" style="fill:#000" class="net_3"/>
  <line x1="32" x2="95" y1="476.5" y2="476.5" class="net_3"/>
  <line x1="32" x2="32" y1="120.5" y2="576.5" class="net_3"/>
  <circle cx="32" cy="576.5" r="2" style="fill:#000" class="net_3"/>
  <line x1="32" x2="95" y1="576.5" y2="576.5" class="net_3"/>
  <line x1="32" x2="32" y1="120.5" y2="812.5" class="net_3"/>
  <line x1="32" x2="95" y1="812.5" y2="812.5" class="net_3"/>
  <line x1="32" x2="32" y1="120.5" y2="208.5" class="net_3"/>
  <circle cx="32" cy="208.5" r="2" style="fill:#000" class="net_3"/>
  <line x1="32" x2="95" y1="208.5" y2="208.5" class="net_3"/>
  <line x1="32" x2="95" y1="120.5" y2="120.5" class="net_3"/>
  <line x1="22" x2="22" y1="32.5" y2="336.5" class="net_4"/>
  <line x1="22" x2="95" y1="336.5" y2="336.5" class="net_4"/>
  <line x1="22" x2="95" y1="32.5" y2="32.5" class="net_4"/>
  <line x1="22" x2="22" y1="684.5" y2="496.5" class="net_5"/>
  <line x1="22" x2="95" y1="496.5" y2="496.5" class="net_5"/>
  <line x1="22" x2="95" y1="684.5" y2="684.5" class="net_5"/>
  <line x1="22" x2="95" y1="792.5" y2="792.5" class="net_6"/>
  <line x1="22" x2="22" y1="792.5" y2="832.5" class="net_6"/>
  <circle cx="22" cy="832.5" r="2" style="fill:#000" class="net_6"/>
  <line x1="22" x2="95" y1="832.5" y2="832.5" class="net_6"/>
  <line x1="22" x2="22" y1="792.5" y2="900.5" class="net_6"/>
  <circle cx="22" cy="900.5" r="2" style="fill:#000" class="net_6"/>
  <line x1="22" x2="95" y1="900.5" y2="900.5" class="net_6"/>
  <line x1="22" x2="22" y1="792.5" y2="1076.5" class="net_6"/>
  <circle cx="22" cy="1076.5" r="2" style="fill:#000" class="net_6"/>
  <line x1="22" x2="95" y1="1076.5" y2="1076.5" class="net_6"/>
  <line x1="22" x2="22" y1="792.5" y2="1292.5" class="net_6"/>
  <line x1="22" x2="95" y1="1292.5" y2="1292.5" class="net_6"/>
  <line x1="22" x2="22" y1="792.5" y2="988.5" class="net_6"/>
  <circle cx="22" cy="988.5" r="2" style="fill:#000" class="net_6"/>
  <line x1="22" x2="95" y1="988.5" y2="988.5" class="net_6"/>
  <line x1="32" x2="95" y1="1184.5" y2="1184.5" class="net_7"/>
  <line x1="32" x2="32" y1="1184.5" y2="1224.5" class="net_7"/>
  <circle cx="32" cy="1224.5" r="2" style="fill:#000" class="net_7"/>
  <line x1="32" x2="95" y1="1224.5" y2="1224.5" class="net_7"/>
  <line x1="32" x2="32" y1="1184.5" y2="1312.5" class="net_7"/>
  <line x1="32" x2="95" y1="1312.5" y2="1312.5" class="net_7"/>
</svg>
